<?xml version="1.0" encoding="UTF-8" standalone="no"?> <svg width="24" height="24" viewBox="0 0 24 24" fill="none" xmlns="http://www.w3.org/2000/svg">
<path d="M11.9981 21C11.8667 20.9998 11.7367 20.9738 11.6154 20.9233C11.4941 20.8729 11.3839 20.799 11.2911 20.706L3.52512 12.926C2.54636 11.9433 1.99683 10.6129 1.99683 9.22596C1.99683 7.83904 2.54636 6.50861 3.52512 5.52596C4.50606 4.54782 5.83483 3.99854 7.22012 3.99854C8.60541 3.99854 9.93417 4.54782 10.9151 5.52596L11.9981 6.61396L13.0831 5.52896C14.0639 4.55057 15.3928 4.00112 16.7781 4.00112C18.1635 4.00112 19.4923 4.55057 20.4731 5.52896C21.4516 6.51174 22.001 7.84212 22.001 9.22896C22.001 10.6158 21.4516 11.9462 20.4731 12.929L12.7081 20.707C12.6149 20.8002 12.5042 20.8741 12.3824 20.9243C12.2605 20.9746 12.1299 21.0003 11.9981 21ZM7.22012 5.99996C6.79673 5.99818 6.37719 6.08043 5.98581 6.24196C5.59444 6.40349 5.23901 6.64108 4.94012 6.94096C4.33551 7.54834 3.99607 8.37046 3.99607 9.22746C3.99607 10.0845 4.33551 10.9066 4.94012 11.514L11.9981 18.585L19.0591 11.514C19.3594 11.2145 19.5977 10.8588 19.7605 10.4672C19.9233 10.0756 20.0074 9.65579 20.008 9.23171C20.0085 8.80762 19.9256 8.38758 19.7638 7.99556C19.602 7.60354 19.3646 7.24723 19.0651 6.94696C18.7656 6.6467 18.41 6.40836 18.0184 6.24555C17.6268 6.08275 17.2069 5.99866 16.7829 5.99811C15.9264 5.99698 15.1045 6.33614 14.4981 6.94096L12.7081 8.73596C12.5172 8.91767 12.2637 9.01901 12.0001 9.01901C11.7365 9.01901 11.4831 8.91767 11.2921 8.73596L9.49812 6.93996C9.19938 6.6405 8.84424 6.40323 8.45323 6.24188C8.06222 6.08054 7.64311 5.99831 7.22012 5.99996V5.99996Z" fill="black"/>
</svg>
